<svg width="25.000000" height="25.000000" viewBox="0 0 25 25" fill="none" xmlns="http://www.w3.org/2000/svg" xmlns:xlink="http://www.w3.org/1999/xlink">
	<desc>
			Created with Pixso.
	</desc>
	<defs/>
	<path id="Vector" d="M12.5 0.000671387C9.21984 -0.0342255 6.06065 1.29547 3.71674 3.69751C1.37283 6.09953 0.0359802 9.37737 0 12.8106C0.0126419 15.5239 0.846527 18.1631 2.38189 20.3493C3.91725 22.5354 6.07509 24.156 8.54546 24.9783C9.17046 25.0972 9.39773 24.7047 9.39773 24.3598C9.39773 24.0149 9.39773 23.2536 9.39773 22.1832C5.92046 22.9563 5.18182 20.4704 5.18182 20.4704C4.95034 19.69 4.45822 19.0229 3.79546 18.5911C2.65909 17.8061 3.88636 17.818 3.88636 17.818C4.27915 17.873 4.65495 18.0203 4.98558 18.249C5.31621 18.4776 5.59309 18.7817 5.79546 19.1383C6.1481 19.7783 6.72674 20.2479 7.40683 20.4458C8.08692 20.6438 8.81408 20.5544 9.43182 20.1969C9.49535 19.5455 9.77715 18.9388 10.2273 18.4841C7.45454 18.163 4.54546 17.0687 4.54546 12.1564C4.52066 10.8751 4.973 9.63383 5.80682 8.69525C5.42708 7.59514 5.47192 6.38342 5.93182 5.31734C5.93182 5.31734 6.98864 4.9724 9.34091 6.62569C11.3885 6.05458 13.5433 6.05458 15.5909 6.62569C17.9773 4.9724 19 5.31734 19 5.31734C19.4599 6.38342 19.5047 7.59514 19.125 8.69525C19.9782 9.61662 20.4551 10.8495 20.4545 12.1326C20.4545 17.0568 17.5227 18.1392 14.7727 18.4603C15.0738 18.7663 15.3064 19.1383 15.4538 19.5497C15.6012 19.961 15.6596 20.4014 15.625 20.8391L15.625 24.3479C15.625 24.3479 15.8523 25.0972 16.4773 24.9664C18.9406 24.139 21.0912 22.5181 22.6218 20.335C24.1524 18.1519 24.9848 15.5184 25 12.8106C24.964 9.37737 23.6272 6.09953 21.2833 3.69751C18.9393 1.29547 15.7802 -0.0342255 12.5 0.000671387Z" fill="#FFFFFF" fill-opacity="1.000000" fill-rule="nonzero"/>
</svg>
