<svg width="26" height="16" viewBox="0 0 26 16" fill="none" xmlns="http://www.w3.org/2000/svg">
<path fill-rule="evenodd" clip-rule="evenodd" d="M24.5931 1.5157C24.7668 0.930221 24.5931 0.5 23.766 0.5H21.031C20.3355 0.5 20.0149 0.871647 19.8411 1.28146C19.8411 1.28146 18.4501 4.7065 16.4798 6.93125C15.8424 7.57528 15.5526 7.78025 15.2049 7.78025C15.0311 7.78025 14.7702 7.57529 14.7702 6.98986V1.5157C14.7702 0.813125 14.5776 0.5 13.998 0.5H9.70015C9.26558 0.5 9.00421 0.826079 9.00421 1.13512C9.00421 1.80115 9.98933 1.95475 10.0909 3.8283V7.89736C10.0909 8.78943 9.9314 8.95121 9.58368 8.95121C8.6565 8.95121 6.40113 5.51088 5.06348 1.57423C4.80133 0.809075 4.53841 0.5 3.83942 0.5H1.1044C0.322968 0.5 0.166672 0.871647 0.166672 1.28146C0.166672 2.01333 1.0939 5.64328 4.48401 10.4441C6.74406 13.7227 9.92833 15.5 12.8259 15.5C14.5644 15.5 14.7795 15.1053 14.7795 14.4254V11.9474C14.7795 11.1579 14.9442 11.0003 15.4947 11.0003C15.9003 11.0003 16.5958 11.2053 18.2184 12.7861C20.0728 14.6596 20.3786 15.5 21.4216 15.5H24.1567C24.9381 15.5 25.3288 15.1053 25.1034 14.3262C24.8567 13.5499 23.9714 12.4235 22.7966 11.0882C22.1591 10.327 21.2028 9.50739 20.913 9.09746C20.5074 8.57064 20.6234 8.33643 20.913 7.86811C20.913 7.86811 24.2453 3.12572 24.5931 1.5157Z" fill="white"/>
</svg>
