<svg width="26" height="26" viewBox="0 0 26 26" fill="none" xmlns="http://www.w3.org/2000/svg">
<path d="M19.0583 15.482C18.745 15.3234 17.2193 14.5789 16.9341 14.4727C16.6489 14.3711 16.4419 14.318 16.2341 14.6312C16.031 14.9367 15.4325 15.6359 15.2497 15.8398C15.0669 16.0437 14.8872 16.0594 14.5786 15.9211C14.2654 15.7625 13.2646 15.4367 12.0763 14.3711C11.1482 13.5453 10.5302 12.5281 10.3466 12.2148C10.1638 11.9055 10.3263 11.7305 10.481 11.5758C10.6232 11.4336 10.7943 11.218 10.9529 11.0305C11.1036 10.843 11.1521 10.7172 11.2622 10.5141C11.3638 10.2945 11.3114 10.1234 11.2341 9.96875C11.1568 9.81406 10.5341 8.28047 10.2739 7.66953C10.0255 7.06328 9.76535 7.14062 9.57395 7.14062C9.39504 7.12422 9.18723 7.12422 8.9802 7.12422C8.77316 7.12422 8.43488 7.20156 8.14973 7.49844C7.86457 7.81172 7.0591 8.56016 7.0591 10.0742C7.0591 11.5922 8.17395 13.0609 8.32863 13.2805C8.48723 13.4836 10.5216 16.6086 13.6427 17.9516C14.3872 18.2648 14.9654 18.4523 15.4169 18.607C16.1614 18.843 16.8411 18.8102 17.3779 18.7328C17.9716 18.6352 19.2169 17.9797 19.4779 17.2477C19.7427 16.5109 19.7427 15.9008 19.6654 15.7625C19.588 15.6203 19.3849 15.543 19.0716 15.4047L19.0583 15.482ZM13.3982 23.1562H13.3818C11.5341 23.1562 9.70754 22.6555 8.11223 21.7195L7.73801 21.4961L3.83176 22.5133L4.88176 18.7125L4.62941 18.3219C3.59973 16.682 3.05051 14.7898 3.05051 12.8453C3.05051 7.17344 7.69348 2.54688 13.406 2.54688C16.1732 2.54688 18.7693 3.625 20.7224 5.57812C22.6755 7.51484 23.7536 10.1109 23.7536 12.8617C23.7458 18.5297 19.1068 23.1562 13.4021 23.1562H13.3982ZM22.2075 4.09297C19.831 1.79766 16.706 0.5 13.3818 0.5C6.52551 0.5 0.942696 6.05859 0.938789 12.8898C0.938789 15.0711 1.50832 17.1992 2.59895 19.0828L0.833321 25.5L7.43332 23.7789C9.25207 24.7594 11.2989 25.2844 13.3825 25.2883H13.3864C20.2466 25.2883 25.8294 19.7297 25.8333 12.8938C25.8333 9.58594 24.5435 6.47266 22.1919 4.13281L22.2075 4.09297Z" fill="white"/>
</svg>
